<mxfile host="app.diagrams.net" modified="2024-04-01T15:15:11.172Z" agent="Mozilla/5.0 (Macintosh; Intel Mac OS X 10_15_7) AppleWebKit/605.1.15 (KHTML, like Gecko) Version/17.2.1 Safari/605.1.15" etag="U8lLxYJuJVX1zhYhg7Tl" version="24.0.1" type="github">
  <diagram id="C5RBs43oDa-KdzZeNtuy" name="Page-1">
    <mxGraphModel dx="838" dy="625" grid="1" gridSize="10" guides="1" tooltips="1" connect="1" arrows="1" fold="1" page="1" pageScale="1" pageWidth="827" pageHeight="1169" background="#FFFFFF" math="0" shadow="0">
      <root>
        <mxCell id="WIyWlLk6GJQsqaUBKTNV-0" />
        <mxCell id="WIyWlLk6GJQsqaUBKTNV-1" parent="WIyWlLk6GJQsqaUBKTNV-0" />
        <mxCell id="zkfFHV4jXpPFQw0GAbJ--0" value="Functional Description" style="swimlane;fontStyle=2;align=center;verticalAlign=top;childLayout=stackLayout;horizontal=1;startSize=26;horizontalStack=0;resizeParent=1;resizeLast=0;collapsible=1;marginBottom=0;rounded=0;shadow=0;strokeWidth=1;" parent="WIyWlLk6GJQsqaUBKTNV-1" vertex="1">
          <mxGeometry x="150" y="70" width="500" height="138" as="geometry">
            <mxRectangle x="230" y="140" width="160" height="26" as="alternateBounds" />
          </mxGeometry>
        </mxCell>
        <mxCell id="zkfFHV4jXpPFQw0GAbJ--1" value="This software will allow users to :&#xa; &#xa;Identify immune cells in their scRNAseq data " style="text;align=left;verticalAlign=top;spacingLeft=4;spacingRight=4;overflow=hidden;rotatable=0;points=[[0,0.5],[1,0.5]];portConstraint=eastwest;" parent="zkfFHV4jXpPFQw0GAbJ--0" vertex="1">
          <mxGeometry y="26" width="500" height="104" as="geometry" />
        </mxCell>
        <mxCell id="zkfFHV4jXpPFQw0GAbJ--13" value="User Interface" style="swimlane;fontStyle=0;align=center;verticalAlign=top;childLayout=stackLayout;horizontal=1;startSize=26;horizontalStack=0;resizeParent=1;resizeLast=0;collapsible=1;marginBottom=0;rounded=0;shadow=0;strokeWidth=1;" parent="WIyWlLk6GJQsqaUBKTNV-1" vertex="1">
          <mxGeometry x="150" y="260" width="160" height="60" as="geometry">
            <mxRectangle x="340" y="380" width="170" height="26" as="alternateBounds" />
          </mxGeometry>
        </mxCell>
        <mxCell id="zkfFHV4jXpPFQw0GAbJ--14" value="Python" style="text;align=left;verticalAlign=top;spacingLeft=4;spacingRight=4;overflow=hidden;rotatable=0;points=[[0,0.5],[1,0.5]];portConstraint=eastwest;" parent="zkfFHV4jXpPFQw0GAbJ--13" vertex="1">
          <mxGeometry y="26" width="160" height="26" as="geometry" />
        </mxCell>
        <mxCell id="zkfFHV4jXpPFQw0GAbJ--17" value="Goals and Milestones" style="swimlane;fontStyle=0;align=center;verticalAlign=top;childLayout=stackLayout;horizontal=1;startSize=26;horizontalStack=0;resizeParent=1;resizeLast=0;collapsible=1;marginBottom=0;rounded=0;shadow=0;strokeWidth=1;" parent="WIyWlLk6GJQsqaUBKTNV-1" vertex="1">
          <mxGeometry x="140" y="460" width="480" height="150" as="geometry">
            <mxRectangle x="550" y="140" width="160" height="26" as="alternateBounds" />
          </mxGeometry>
        </mxCell>
        <mxCell id="09UutvZnmNPUWjKQcudk-0" value="1. Create high level documentation&amp;nbsp;&lt;br&gt;2. Set up GitHub repository" style="text;html=1;align=center;verticalAlign=middle;resizable=0;points=[];autosize=1;strokeColor=none;fillColor=none;" parent="zkfFHV4jXpPFQw0GAbJ--17" vertex="1">
          <mxGeometry y="26" width="480" height="40" as="geometry" />
        </mxCell>
        <mxCell id="09UutvZnmNPUWjKQcudk-2" value="3. Refine documentation and begin writing code&lt;br&gt;4. Prototype 1&lt;br&gt;&amp;nbsp;5. &amp;nbsp;Peer review and bug fixes&lt;br&gt;&amp;nbsp; 6. &amp;nbsp;Prototype 2&lt;br&gt;&amp;nbsp; 7. Final peer review and publish&amp;nbsp;" style="text;html=1;align=center;verticalAlign=middle;resizable=0;points=[];autosize=1;strokeColor=none;fillColor=none;" parent="zkfFHV4jXpPFQw0GAbJ--17" vertex="1">
          <mxGeometry y="66" width="480" height="80" as="geometry" />
        </mxCell>
        <mxCell id="6pVBCeR2QbWaUEdIuofz-0" value="Task Prioritization" style="swimlane;fontStyle=0;align=center;verticalAlign=top;childLayout=stackLayout;horizontal=1;startSize=26;horizontalStack=0;resizeParent=1;resizeLast=0;collapsible=1;marginBottom=0;rounded=0;shadow=0;strokeWidth=1;" parent="WIyWlLk6GJQsqaUBKTNV-1" vertex="1">
          <mxGeometry x="350" y="220" width="260" height="190" as="geometry">
            <mxRectangle x="550" y="140" width="160" height="26" as="alternateBounds" />
          </mxGeometry>
        </mxCell>
        <mxCell id="6pVBCeR2QbWaUEdIuofz-1" value="1. import data into python notebook&#xa;2. Preprocess data with Scanpy&#xa;    3. Create results Doc&#xa;  4. Determine if data set has immune cells &#xa;  5. Determine if data has myeloid or lymphoid &#xa;        cells&#xa; 6a.  Determine what Myeloid cells are present&#xa; 6b. Determine what Lymphoid cells are present&#xa;7. Update results page with cell read outs&#xa;   or message for stopping point before cell &#xa;    readout" style="text;align=left;verticalAlign=top;spacingLeft=4;spacingRight=4;overflow=hidden;rotatable=0;points=[[0,0.5],[1,0.5]];portConstraint=eastwest;" parent="6pVBCeR2QbWaUEdIuofz-0" vertex="1">
          <mxGeometry y="26" width="260" height="164" as="geometry" />
        </mxCell>
        <mxCell id="6pVBCeR2QbWaUEdIuofz-2" value="Proposed Solutions" style="swimlane;fontStyle=0;align=center;verticalAlign=top;childLayout=stackLayout;horizontal=1;startSize=26;horizontalStack=0;resizeParent=1;resizeLast=0;collapsible=1;marginBottom=0;rounded=0;shadow=0;strokeWidth=1;" parent="WIyWlLk6GJQsqaUBKTNV-1" vertex="1">
          <mxGeometry x="140" y="660" width="500" height="150" as="geometry">
            <mxRectangle x="550" y="140" width="160" height="26" as="alternateBounds" />
          </mxGeometry>
        </mxCell>
        <mxCell id="09UutvZnmNPUWjKQcudk-3" value="1. Use alternative methods to preprocessing&lt;br&gt;2. Expand tool to be used for any level of data input, including raw and preprocessed&lt;br&gt;&amp;nbsp; 3. Create better unitest or pytest&lt;br&gt;" style="text;html=1;align=center;verticalAlign=middle;resizable=0;points=[];autosize=1;strokeColor=none;fillColor=none;" parent="6pVBCeR2QbWaUEdIuofz-2" vertex="1">
          <mxGeometry y="26" width="500" height="60" as="geometry" />
        </mxCell>
        <mxCell id="ZBzTgdzAlaYD0r8RpFqJ-0" value="Module 1" style="swimlane;whiteSpace=wrap;html=1;" parent="WIyWlLk6GJQsqaUBKTNV-1" vertex="1">
          <mxGeometry x="110" y="850" width="380" height="110" as="geometry" />
        </mxCell>
        <mxCell id="ZBzTgdzAlaYD0r8RpFqJ-1" value="Scanpy preprocessing , required for ImVal immune scores to&lt;br&gt;&amp;nbsp;be accurately calculated&lt;div&gt;Module 1 created by pull request from MMIRE&lt;/div&gt;&lt;div&gt;Preprocessing does very short QC based off of scanpy tutorial&lt;/div&gt;" style="text;html=1;align=center;verticalAlign=middle;resizable=0;points=[];autosize=1;strokeColor=none;fillColor=none;" parent="ZBzTgdzAlaYD0r8RpFqJ-0" vertex="1">
          <mxGeometry x="5" y="20" width="350" height="70" as="geometry" />
        </mxCell>
        <mxCell id="ZBzTgdzAlaYD0r8RpFqJ-2" value="Module 2" style="swimlane;whiteSpace=wrap;html=1;" parent="WIyWlLk6GJQsqaUBKTNV-1" vertex="1">
          <mxGeometry x="510" y="850" width="270" height="90" as="geometry" />
        </mxCell>
        <mxCell id="ZBzTgdzAlaYD0r8RpFqJ-3" value="PTPRC is looked for through the dataset&lt;div&gt;threshold is zero&lt;/div&gt;&lt;div&gt;results file is made and message given&amp;nbsp;&lt;/div&gt;&lt;div&gt;if ptprc is expressed or not&lt;/div&gt;" style="text;html=1;align=center;verticalAlign=middle;resizable=0;points=[];autosize=1;strokeColor=none;fillColor=none;" parent="ZBzTgdzAlaYD0r8RpFqJ-2" vertex="1">
          <mxGeometry x="15" y="20" width="240" height="70" as="geometry" />
        </mxCell>
        <mxCell id="ZBzTgdzAlaYD0r8RpFqJ-6" value="Module 5" style="swimlane;whiteSpace=wrap;html=1;" parent="WIyWlLk6GJQsqaUBKTNV-1" vertex="1">
          <mxGeometry x="170" y="1310" width="530" height="130" as="geometry" />
        </mxCell>
        <mxCell id="ZBzTgdzAlaYD0r8RpFqJ-7" value="&lt;div&gt;Preset myeloid armers for each myeloid cell type are input&amp;nbsp;&lt;/div&gt;&lt;div&gt;cell has multiple gene markers&lt;/div&gt;&lt;div&gt;a message tells you whether those cells are present or not in the data set&lt;/div&gt;&lt;div&gt;the results file is then updated&lt;/div&gt;" style="text;html=1;align=center;verticalAlign=middle;resizable=0;points=[];autosize=1;strokeColor=none;fillColor=none;" parent="ZBzTgdzAlaYD0r8RpFqJ-6" vertex="1">
          <mxGeometry x="60" y="35" width="410" height="70" as="geometry" />
        </mxCell>
        <mxCell id="ktD13bNwA3o_G1vweS_7-0" value="Module 6" style="swimlane;whiteSpace=wrap;html=1;" parent="WIyWlLk6GJQsqaUBKTNV-1" vertex="1">
          <mxGeometry x="159" y="1470" width="530" height="130" as="geometry" />
        </mxCell>
        <mxCell id="ktD13bNwA3o_G1vweS_7-1" value="&lt;div&gt;Preset myeloid armers for each lymphoid cell type are input&amp;nbsp;&lt;/div&gt;&lt;div&gt;cell has multiple gene markers&lt;/div&gt;&lt;div&gt;a message tells you whether those cells are present or not in the data set&lt;/div&gt;&lt;div&gt;the results file is then updated&lt;/div&gt;" style="text;html=1;align=center;verticalAlign=middle;resizable=0;points=[];autosize=1;strokeColor=none;fillColor=none;" parent="ktD13bNwA3o_G1vweS_7-0" vertex="1">
          <mxGeometry x="60" y="35" width="410" height="70" as="geometry" />
        </mxCell>
        <mxCell id="XMkTfAyYmPfX_VzBCxZC-0" value="Module 3" style="swimlane;whiteSpace=wrap;html=1;" vertex="1" parent="WIyWlLk6GJQsqaUBKTNV-1">
          <mxGeometry x="199" y="1020" width="450" height="120" as="geometry" />
        </mxCell>
        <mxCell id="XMkTfAyYmPfX_VzBCxZC-1" value="Determine if &amp;nbsp;myeloid cells are present&amp;nbsp;&lt;div&gt;preset threshold of 0 for common myeloid genes&lt;br&gt;gives message of which genes are expressed or not expressed&amp;nbsp;&lt;/div&gt;&lt;div&gt;Updates result file with message&lt;/div&gt;" style="text;html=1;align=center;verticalAlign=middle;resizable=0;points=[];autosize=1;strokeColor=none;fillColor=none;" vertex="1" parent="XMkTfAyYmPfX_VzBCxZC-0">
          <mxGeometry x="45" y="25" width="360" height="70" as="geometry" />
        </mxCell>
        <mxCell id="ZBzTgdzAlaYD0r8RpFqJ-4" value="Module 4" style="swimlane;whiteSpace=wrap;html=1;" parent="WIyWlLk6GJQsqaUBKTNV-1" vertex="1">
          <mxGeometry x="209" y="1200" width="450" height="100" as="geometry" />
        </mxCell>
        <mxCell id="ZBzTgdzAlaYD0r8RpFqJ-5" value="Determine if &amp;nbsp;Lymphoid cells are present&amp;nbsp;&lt;div&gt;preset threshold of 0 for common myeloid genes&lt;br&gt;gives message of which genes are expressed or not expressed&lt;/div&gt;&lt;div&gt;Updates results file with message&amp;nbsp;&lt;/div&gt;" style="text;html=1;align=center;verticalAlign=middle;resizable=0;points=[];autosize=1;strokeColor=none;fillColor=none;" parent="ZBzTgdzAlaYD0r8RpFqJ-4" vertex="1">
          <mxGeometry x="46" y="25" width="360" height="70" as="geometry" />
        </mxCell>
      </root>
    </mxGraphModel>
  </diagram>
</mxfile>
